<svg width="32" height="32" viewBox="0 0 32 32" fill="none" xmlns="http://www.w3.org/2000/svg">
<path d="M28 28H17.3333M3.33325 28.6667L10.7323 25.8209C11.2055 25.6389 11.4422 25.5478 11.6635 25.429C11.8602 25.3235 12.0477 25.2016 12.224 25.0648C12.4225 24.9108 12.6018 24.7315 12.9603 24.373L27.9999 9.33332C29.4727 7.86056 29.4727 5.47275 28 3.99999C26.5272 2.52723 24.1394 2.52723 22.6666 3.99998L7.62696 19.0396C7.26842 19.3982 7.08915 19.5774 6.93511 19.7759C6.79828 19.9523 6.67645 20.1397 6.5709 20.3364C6.45206 20.5578 6.36105 20.7944 6.17903 21.2676L3.33325 28.6667ZM3.33325 28.6667L6.07741 21.5319C6.27378 21.0214 6.37197 20.7661 6.54037 20.6492C6.68755 20.547 6.86966 20.5083 7.04565 20.5419C7.24703 20.5804 7.44043 20.7738 7.82723 21.1606L10.8393 24.1727C11.2261 24.5595 11.4195 24.7529 11.458 24.9543C11.4916 25.1303 11.453 25.3124 11.3508 25.4596C11.2338 25.628 10.9786 25.7262 10.468 25.9225L3.33325 28.6667Z" stroke="#323940" stroke-width="2" stroke-linecap="round" stroke-linejoin="round"/>
</svg>
