<svg width="172" height="184" viewBox="0 0 172 184" fill="none" xmlns="http://www.w3.org/2000/svg">
<g filter="url(#filter0_dd_685_1316)">
<g clip-path="url(#clip0_685_1316)">
<rect width="160" height="160" rx="80" fill="#F2F4F7"/>
<g opacity="0.08">
<rect x="0.5" y="0.5" width="159" height="159" rx="79.5" stroke="#101828"/>
</g>
<path d="M106.667 110C106.667 105.348 106.667 103.022 106.092 101.13C104.8 96.8682 101.465 93.5334 97.2037 92.2408C95.3111 91.6666 92.9851 91.6666 88.3332 91.6666H71.6666C67.0147 91.6666 64.6888 91.6666 62.7961 92.2408C58.5348 93.5334 55.2001 96.8682 53.9074 101.13C53.3333 103.022 53.3333 105.348 53.3333 110M94.9999 65C94.9999 73.2843 88.2842 80 79.9999 80C71.7156 80 64.9999 73.2843 64.9999 65C64.9999 56.7157 71.7156 50 79.9999 50C88.2842 50 94.9999 56.7157 94.9999 65Z" stroke="#475467" stroke-width="6.66667" stroke-linecap="round" stroke-linejoin="round"/>
</g>
<rect x="2" y="2" width="156" height="156" rx="78" stroke="white" stroke-width="4"/>
</g>
<defs>
<filter id="filter0_dd_685_1316" x="-12" y="0" width="184" height="184" filterUnits="userSpaceOnUse" color-interpolation-filters="sRGB">
<feFlood flood-opacity="0" result="BackgroundImageFix"/>
<feColorMatrix in="SourceAlpha" type="matrix" values="0 0 0 0 0 0 0 0 0 0 0 0 0 0 0 0 0 0 127 0" result="hardAlpha"/>
<feMorphology radius="2" operator="erode" in="SourceAlpha" result="effect1_dropShadow_685_1316"/>
<feOffset dy="4"/>
<feGaussianBlur stdDeviation="3"/>
<feColorMatrix type="matrix" values="0 0 0 0 0.0627451 0 0 0 0 0.0941176 0 0 0 0 0.156863 0 0 0 0.03 0"/>
<feBlend mode="normal" in2="BackgroundImageFix" result="effect1_dropShadow_685_1316"/>
<feColorMatrix in="SourceAlpha" type="matrix" values="0 0 0 0 0 0 0 0 0 0 0 0 0 0 0 0 0 0 127 0" result="hardAlpha"/>
<feMorphology radius="4" operator="erode" in="SourceAlpha" result="effect2_dropShadow_685_1316"/>
<feOffset dy="12"/>
<feGaussianBlur stdDeviation="8"/>
<feColorMatrix type="matrix" values="0 0 0 0 0.0627451 0 0 0 0 0.0941176 0 0 0 0 0.156863 0 0 0 0.08 0"/>
<feBlend mode="normal" in2="effect1_dropShadow_685_1316" result="effect2_dropShadow_685_1316"/>
<feBlend mode="normal" in="SourceGraphic" in2="effect2_dropShadow_685_1316" result="shape"/>
</filter>
<clipPath id="clip0_685_1316">
<rect width="160" height="160" rx="80" fill="white"/>
</clipPath>
</defs>
</svg>
